# xmcd
#
# Track frame offsets:
# 183
# 14460
# 30295
# 56603
# 86425
# 100228
# 120453
# 140828
# 159415
# 181475
#
# Disc length: 2653 seconds
#
#
# Revision: 0
# Processed by: cddbd v1.4PL0 Copyright (c) Steve Scherf et al.
# Submitted via: FreeRIP 2.51 
#
DISCID=790a5b0a
DTITLE=Larry Howard - Bright side of the blues
DYEAR=1994
DGENRE=Blues
TTITLE0=Bright side of the blues
TTITLE1=Dancin' at the wedding ball
TTITLE2=Don't think twice
TTITLE3=I found out
TTITLE4=Gone fishin'
TTITLE5=Signified life
TTITLE6=Beneath the color of skin
TTITLE7=Expecting miracles
TTITLE8=11:59
TTITLE9=Still standing
EXTD=
EXTT0=
EXTT1=
EXTT2=
EXTT3=
EXTT4=
EXTT5=
EXTT6=
EXTT7=
EXTT8=
EXTT9=
PLAYORDER=
